<?xml version="1.0" encoding="utf-8"?>
<!-- Generator: Adobe Illustrator 16.0.0, SVG Export Plug-In . SVG Version: 6.00 Build 0)  -->
<!DOCTYPE svg PUBLIC "-//W3C//DTD SVG 1.1//EN" "http://www.w3.org/Graphics/SVG/1.1/DTD/svg11.dtd">
<svg version="1.1" xmlns="http://www.w3.org/2000/svg" xmlns:xlink="http://www.w3.org/1999/xlink" x="0px" y="0px" width="128px"
	 height="128px" viewBox="0 0 128 128" enable-background="new 0 0 128 128" xml:space="preserve">
<g id="Layer_2">
</g>
<g id="Layer_1" display="none">
	<g display="inline">
		<g id="path1_1_" display="none">
			<path display="inline" fill="#FFFFFF" d="M47.333,110.326c-0.326,0-0.654-0.106-0.928-0.321L11.072,82.168
				c-0.313-0.247-0.515-0.607-0.562-1.002c-0.047-0.396,0.065-0.793,0.312-1.105l4.179-5.299c0.296-0.375,0.735-0.571,1.179-0.571
				c0.325,0,0.652,0.105,0.927,0.321L46.59,97.737l67.489-69.606c0.277-0.286,0.656-0.45,1.055-0.456c0.007,0,0.015,0,0.022,0
				c0.39,0,0.765,0.152,1.045,0.424l4.844,4.702c0.594,0.577,0.608,1.526,0.032,2.12L48.41,109.87
				C48.117,110.172,47.726,110.326,47.333,110.326z"/>
			<path display="inline" fill="#FFFFFF" d="M115.156,29.175L120,33.877l-72.667,74.949L12,80.989l4.179-5.299l30.546,24.063
				L115.156,29.175 M115.156,26.175c-0.016,0-0.03,0-0.045,0c-0.796,0.012-1.555,0.34-2.109,0.911L46.456,95.722l-28.42-22.388
				c-0.55-0.434-1.205-0.644-1.854-0.644c-0.887,0-1.766,0.392-2.357,1.143l-4.179,5.299c-0.493,0.625-0.717,1.42-0.624,2.21
				c0.093,0.791,0.497,1.512,1.123,2.004l35.333,27.837c0.547,0.432,1.203,0.644,1.855,0.644c0.787,0,1.57-0.309,2.155-0.912
				l72.667-74.949c1.152-1.189,1.124-3.087-0.064-4.241l-4.844-4.702C116.686,26.479,115.936,26.175,115.156,26.175L115.156,26.175z
				"/>
		</g>
	</g>
</g>
<g id="Layer_4">
	
		<line fill="none" stroke="#C4C4C4" stroke-width="8" stroke-linecap="round" stroke-linejoin="round" stroke-miterlimit="10" x1="6.041" y1="85.083" x2="43.24" y2="112.021"/>
	
		<line fill="none" stroke="#C4C4C4" stroke-width="8" stroke-linecap="round" stroke-linejoin="round" stroke-miterlimit="10" x1="43.881" y1="111.379" x2="122.127" y2="28.644"/>
</g>
<g id="Layer_3">
</g>
</svg>
