<?xml version="1.0" encoding="utf-8"?>
<!-- Generator: Adobe Illustrator 16.0.0, SVG Export Plug-In . SVG Version: 6.00 Build 0)  -->
<!DOCTYPE svg PUBLIC "-//W3C//DTD SVG 1.1//EN" "http://www.w3.org/Graphics/SVG/1.1/DTD/svg11.dtd">
<svg version="1.1" id="Layer_1" xmlns="http://www.w3.org/2000/svg" xmlns:xlink="http://www.w3.org/1999/xlink" x="0px" y="0px"
	 width="40px" height="40px" viewBox="0 0 40 40" enable-background="new 0 0 40 40" xml:space="preserve">
<path fill="#FFFFFF" d="M21.897,4.024c-1.318-0.762-3.477-0.762-4.795,0L5.424,10.775c-1.319,0.762-2.398,2.632-2.398,4.155v13.506
	c0,1.523,1.079,3.393,2.398,4.154l11.678,6.751c1.319,0.763,3.477,0.763,4.795,0l11.679-6.751c1.318-0.762,2.397-2.631,2.397-4.154
	V14.93c0-1.523-1.079-3.393-2.397-4.155L21.897,4.024z M32.389,26.476c0,1.523-1.246,2.77-2.771,2.77H9.583
	c-1.523,0-2.769-1.246-2.769-2.77V16.89c0-1.523,1.246-2.769,2.769-2.769h20.036c1.524,0,2.771,1.246,2.771,2.769V26.476z"/>
<g>
	<path fill="#FFFFFF" d="M14,22.508C14,23.332,13.332,24,12.508,24h-0.017C11.668,24,11,23.332,11,22.508v-4.016
		C11,17.668,11.668,17,12.492,17h0.017C13.332,17,14,17.668,14,18.492V22.508z"/>
	<path fill="#FFFFFF" d="M23,21.792C23,22.617,22.454,23,21.632,23H21.32C20.498,23,20,22.617,20,21.792v-3.603
		C20,17.365,20.498,17,21.32,17h0.312C22.454,17,23,17.365,23,18.189V21.792z"/>
</g>
<path fill="#FFFFFF" d="M35.168,9.317c-0.291,0.508-0.944,0.686-1.453,0.395l-9.33-5.346c-0.51-0.292-0.687-0.945-0.396-1.454
	l0.03-0.052c0.291-0.508,0.945-0.686,1.453-0.395l9.331,5.346c0.508,0.291,0.686,0.945,0.395,1.453L35.168,9.317z"/>
<path fill="#FFFFFF" d="M34.007,5.385c-0.292,0.509-0.945,0.686-1.453,0.395l-4.189-2.4c-0.509-0.291-0.686-0.945-0.395-1.453
	L28,1.875c0.291-0.508,0.945-0.687,1.453-0.395l4.188,2.4c0.509,0.292,0.688,0.945,0.396,1.454L34.007,5.385z"/>
<path fill="#FFFFFF" d="M33.403,1.772c-0.291,0.509-0.945,0.686-1.453,0.395l-0.164-0.094C31.278,1.782,31.1,1.128,31.391,0.62
	l0.03-0.052c0.291-0.509,0.946-0.686,1.454-0.395l0.164,0.094c0.508,0.292,0.686,0.945,0.395,1.454L33.403,1.772z"/>
</svg>
